<svg width="107" height="28" viewBox="0 0 107 28" fill="none" xmlns="http://www.w3.org/2000/svg">
<path d="M7.62384 12.7871C10.1949 15.8512 9.50899 16.4268 8.66284 17.1368C7.81669 17.8468 7.13075 18.4224 4.55966 15.3583C1.92872 12.2228 2.6745 11.7186 3.52065 11.0086C4.3668 10.2986 5.05274 9.72299 7.62384 12.7871Z" fill="#76C1B2"/>
<path d="M19.6407 8.32578C20.3353 12.2649 19.4535 12.4204 18.3657 12.6122C17.2779 12.804 16.3961 12.9595 15.7015 9.02037C14.9907 4.98954 15.8887 4.92574 16.9765 4.73393C18.0643 4.54213 18.9461 4.38664 19.6407 8.32578Z" fill="#76C1B2"/>
<path d="M13.2498 9.57501C14.9403 13.2002 14.1287 13.5786 13.1276 14.0454C12.1266 14.5122 11.315 14.8906 9.62459 11.2655C7.8948 7.55594 8.74569 7.2619 9.74677 6.79509C10.7478 6.32828 11.5594 5.94985 13.2498 9.57501Z" fill="#76C1B2"/>
<ellipse cx="15.6634" cy="19.4833" rx="7" ry="5" transform="rotate(-25 15.6634 19.4833)" fill="#76C1B2"/>
<path d="M46.7656 23.9523C46.5309 24.0163 46.1896 24.0803 45.7416 24.1443C45.3149 24.2083 44.8456 24.2403 44.3336 24.2403C43.2669 24.2403 42.4989 24.0696 42.0296 23.7283C41.5603 23.3656 41.3256 22.6829 41.3256 21.6803V14.1283C41.3256 13.4669 41.1229 12.9869 40.7176 12.6883C40.3336 12.3683 39.8216 12.2083 39.1816 12.2083C38.7549 12.2083 38.3496 12.2616 37.9656 12.3683C37.6029 12.4749 37.2509 12.6136 36.9096 12.7843V23.9523C36.6749 24.0163 36.3336 24.0803 35.8856 24.1443C35.4589 24.2083 34.9896 24.2403 34.4776 24.2403C33.4109 24.2403 32.6429 24.0696 32.1736 23.7283C31.7043 23.3656 31.4696 22.6829 31.4696 21.6803V12.0483C31.4696 11.4723 31.5869 11.0029 31.8216 10.6403C32.0776 10.2776 32.4189 9.94692 32.8456 9.64825C33.5709 9.13625 34.4776 8.73092 35.5656 8.43225C36.6749 8.11225 37.9016 7.95225 39.2456 7.95225C41.6563 7.95225 43.5123 8.48558 44.8136 9.55225C46.1149 10.5976 46.7656 12.0696 46.7656 13.9683V23.9523ZM66.2218 16.2083C66.2218 17.4883 66.0192 18.6403 65.6138 19.6643C65.2298 20.6883 64.6645 21.5629 63.9178 22.2883C63.1925 22.9923 62.3178 23.5363 61.2938 23.9203C60.2698 24.3043 59.1178 24.4963 57.8378 24.4963C56.5578 24.4963 55.4058 24.3149 54.3818 23.9523C53.3578 23.5683 52.4725 23.0243 51.7258 22.3203C51.0005 21.5949 50.4352 20.7203 50.0298 19.6963C49.6458 18.6723 49.4538 17.5096 49.4538 16.2083C49.4538 14.9496 49.6565 13.8083 50.0618 12.7843C50.4672 11.7603 51.0325 10.8963 51.7578 10.1923C52.5045 9.46692 53.3898 8.91225 54.4138 8.52825C55.4378 8.14425 56.5792 7.95225 57.8378 7.95225C59.0965 7.95225 60.2378 8.15492 61.2618 8.56025C62.2858 8.94425 63.1605 9.49892 63.8858 10.2243C64.6325 10.9283 65.2085 11.7923 65.6138 12.8163C66.0192 13.8403 66.2218 14.9709 66.2218 16.2083ZM57.8378 12.2083C56.9418 12.2083 56.2485 12.5603 55.7578 13.2643C55.2672 13.9469 55.0218 14.9283 55.0218 16.2083C55.0218 17.5523 55.2672 18.5656 55.7578 19.2483C56.2485 19.9096 56.9418 20.2403 57.8378 20.2403C58.7338 20.2403 59.4272 19.8989 59.9178 19.2163C60.4085 18.5336 60.6538 17.5309 60.6538 16.2083C60.6538 14.9283 60.4085 13.9469 59.9178 13.2643C59.4272 12.5603 58.7338 12.2083 57.8378 12.2083ZM84.9718 16.2083C84.9718 17.4883 84.7692 18.6403 84.3638 19.6643C83.9798 20.6883 83.4145 21.5629 82.6678 22.2883C81.9425 22.9923 81.0678 23.5363 80.0438 23.9203C79.0198 24.3043 77.8678 24.4963 76.5878 24.4963C75.3078 24.4963 74.1558 24.3149 73.1318 23.9523C72.1078 23.5683 71.2225 23.0243 70.4758 22.3203C69.7505 21.5949 69.1852 20.7203 68.7798 19.6963C68.3958 18.6723 68.2038 17.5096 68.2038 16.2083C68.2038 14.9496 68.4065 13.8083 68.8118 12.7843C69.2172 11.7603 69.7825 10.8963 70.5078 10.1923C71.2545 9.46692 72.1398 8.91225 73.1638 8.52825C74.1878 8.14425 75.3292 7.95225 76.5878 7.95225C77.8465 7.95225 78.9878 8.15492 80.0118 8.56025C81.0358 8.94425 81.9105 9.49892 82.6358 10.2243C83.3825 10.9283 83.9585 11.7923 84.3638 12.8163C84.7692 13.8403 84.9718 14.9709 84.9718 16.2083ZM76.5878 12.2083C75.6918 12.2083 74.9985 12.5603 74.5078 13.2643C74.0172 13.9469 73.7718 14.9283 73.7718 16.2083C73.7718 17.5523 74.0172 18.5656 74.5078 19.2483C74.9985 19.9096 75.6918 20.2403 76.5878 20.2403C77.4838 20.2403 78.1772 19.8989 78.6678 19.2163C79.1585 18.5336 79.4038 17.5309 79.4038 16.2083C79.4038 14.9283 79.1585 13.9469 78.6678 13.2643C78.1772 12.5603 77.4838 12.2083 76.5878 12.2083ZM93.1298 23.9523C92.8952 24.0163 92.5538 24.0803 92.1058 24.1443C91.6792 24.2083 91.2098 24.2403 90.6978 24.2403C89.6312 24.2403 88.8632 24.0696 88.3938 23.7283C87.9245 23.3656 87.6898 22.6829 87.6898 21.6803V3.12025C87.9245 3.05625 88.2552 2.99225 88.6818 2.92825C89.1298 2.86425 89.6098 2.83225 90.1218 2.83225C91.1885 2.83225 91.9565 3.01359 92.4258 3.37625C92.8952 3.71759 93.1298 4.38959 93.1298 5.39225V13.8403L98.6338 8.20825C99.7432 8.20825 100.629 8.45359 101.29 8.94425C101.973 9.43492 102.314 10.0536 102.314 10.8003C102.314 11.1203 102.261 11.4189 102.154 11.6963C102.047 11.9523 101.877 12.2189 101.642 12.4963C101.429 12.7736 101.141 13.0723 100.778 13.3923C100.437 13.6909 100.031 14.0429 99.5618 14.4483L97.6738 16.0803L102.826 21.1683C102.719 22.1709 102.421 22.9389 101.93 23.4723C101.461 24.0056 100.767 24.2723 99.8498 24.2723C99.1672 24.2723 98.5592 24.1123 98.0258 23.7923C97.4925 23.4509 96.9165 22.8856 96.2978 22.0963L93.1298 18.1603V23.9523Z" fill="white"/>
</svg>
